<?xml version="1.0" encoding="utf-8"?>
<!-- Generator: Adobe Illustrator 24.0.1, SVG Export Plug-In . SVG Version: 6.00 Build 0)  -->
<svg version="1.1" id="Layer_1" xmlns="http://www.w3.org/2000/svg" xmlns:xlink="http://www.w3.org/1999/xlink" x="0px" y="0px"
	 viewBox="0 0 134.9 50.5" style="enable-background:new 0 0 134.9 50.5;" xml:space="preserve">
<style type="text/css">
	.st0{fill:#70C3ED;}
</style>
<g>
	<path class="st0" d="M35.3,23.7C35.3,23.7,35.3,23.7,35.3,23.7c-0.4-0.1-0.7-0.1-1.1-0.1c-0.6,1-1.2,2-1.8,2.9
		c-0.2,0.3-0.4,0.8-0.6,1.1c0,0,0,0,0,0c0,0,0,0,0,0c-0.5-1-1.2-1.9-1.7-2.9c-0.2-0.3-0.6-0.7-0.7-1.1c-0.3,0-0.7-0.1-0.9,0
		c-0.1,0-0.2,0-0.3,0c0.1,0.6,0.6,1,0.9,1.5c0.5,0.8,1,1.6,1.5,2.5c0.2,0.3,0.3,0.8,0.6,1.1c0,0.9,0,1.8,0,2.7c0.3,0,0.8,0.1,1.1,0
		c0,0,0.1,0,0.1,0c0-0.9,0-1.8,0-2.7C33.3,27,34.3,25.4,35.3,23.7z"/>
	<path class="st0" d="M27.9,30.3c-0.9,0-2-0.1-2.8,0c-0.4,0-1-0.2-1.4,0c-0.1,0-0.2,0-0.2-0.1c-0.2-0.4,0.1-1.6,0-2
		c0-0.1,0-0.3,0.1-0.3c0.3-0.1,0.7,0,1,0c0.6-0.1,1.4,0,2,0c0.2,0,0.5,0.1,0.6,0c0,0,0.1,0,0.1,0c0-0.3,0.1-0.7,0-0.9
		c0,0-0.9-0.1-1.1,0c-0.9,0.1-1.9-0.1-2.8,0c-0.1-0.3,0-0.7,0-1.1c0-0.4-0.1-0.8,0-1.3c1.4,0,2.9,0,4.3,0c-0.1-0.3,0-0.7,0-1
		c-1.8,0-3.6,0-5.5,0c-0.1,0.8-0.1,1.8,0,2.5c0.1,0.9-0.1,1.8,0,2.7c0.1,0.6-0.2,2,0,2.4c0,0,0,0.1,0,0.1c0.8,0.1,1.8,0.1,2.5,0
		c0.6,0,1.1,0,1.7,0c0.4,0,0.9-0.1,1.4,0C27.9,31,27.9,30.7,27.9,30.3C27.9,30.4,27.9,30.4,27.9,30.3C27.9,30.4,27.9,30.4,27.9,30.3
		z"/>
	<path class="st0" d="M132.9,23.6c-0.4,0-0.8,0-1.1,0c-0.1,0.8-0.1,1.8,0,2.5c0.1,0.9-0.1,1.8,0,2.7c0.1,0.6-0.2,2,0,2.4
		c0,0,0,0.1,0,0.1c0.4,0,0.7,0,1.1,0c0.1-0.6,0.1-1.2,0-1.7c-0.1-0.6,0.1-1.2,0-1.7c0-0.8,0-1.6,0-2.4
		C132.9,24.9,132.9,24.2,132.9,23.6z"/>
	<path class="st0" d="M25.1,15.8c0.3,0,0.7,0.1,1,0c0.2,0.1,0.8,1.6,0.9,1.9c0.2,0,0.7,0.1,0.9,0c0.1,0,0.2,0,0.3,0
		c-0.1-0.6-0.7-1.6-1-2.2c-0.5-1-0.8-2-1.3-3c-0.4-0.8-0.9-1.7-1.2-2.6c-0.1,0-0.2,0-0.3,0c-0.2,0.1-0.6,0-0.9,0.1
		c-0.3,0.3-0.5,1.2-0.8,1.7c-0.6,1.3-1.2,2.6-1.8,3.8c-0.3,0.5-0.6,1.7-0.9,2.1c0,0,0,0,0,0c0.4,0,0.8,0,1.2,0
		c0.1-0.4,0.6-1.6,0.8-1.8c0,0,0-0.1,0-0.1C23.1,15.9,24.2,15.9,25.1,15.8z M22.8,14.9c-0.1,0-0.2,0-0.3,0c0.5-1.2,1.1-2.4,1.6-3.7
		c0.2,0.2,0.2,0.5,0.3,0.8c0.3,0.6,0.6,1.2,0.9,1.8c0.2,0.3,0.2,0.7,0.4,1c-0.2,0.2-0.6,0-0.9,0.1C24.4,14.9,23.2,14.8,22.8,14.9z"
		/>
	<path class="st0" d="M40.3,26.2c-0.4-0.8-0.9-1.7-1.2-2.6c-0.1,0-0.2,0-0.3,0c-0.2,0.1-0.6,0-0.9,0.1c-0.3,0.3-0.5,1.2-0.8,1.7
		c-0.6,1.2-1.2,2.6-1.8,3.8c-0.3,0.5-0.6,1.7-0.9,2.1c0,0,0,0,0,0c0.4,0,0.8,0,1.2,0c0.1-0.4,0.6-1.6,0.8-1.8c0,0,0-0.1,0-0.1
		c0.9,0.1,2.1,0.1,3,0c0.3,0,0.7,0.1,1,0c0.2,0.1,0.8,1.6,0.9,1.9c0.2,0,0.7,0.1,0.9,0c0.1,0,0.2,0,0.3,0c-0.1-0.6-0.7-1.6-1-2.2
		C41.1,28.2,40.8,27.2,40.3,26.2z M39.3,28.5c-0.4,0-1.7-0.1-2,0c-0.1,0-0.2,0-0.3,0c0.5-1.2,1.1-2.4,1.6-3.7
		c0.2,0.2,0.2,0.5,0.3,0.8c0.3,0.6,0.6,1.2,0.9,1.8c0.2,0.3,0.2,0.7,0.4,1C40,28.6,39.5,28.5,39.3,28.5z"/>
	<path class="st0" d="M11,10.1c-0.3,0.3-0.5,1.2-0.7,1.6c-0.4,0.9-0.9,2-1.3,2.9c-0.2,0.5-0.4,1.3-0.7,1.6c0,0.1,0,0-0.1,0.1
		c-0.3-0.7-0.6-1.5-1-2.2c-0.3-0.8-0.6-1.5-0.9-2.3c-0.2-0.5-0.7-1.3-0.8-1.8c-0.4,0-0.8,0-1.2,0c0,0.3,0.2,0.6,0.4,0.9
		c0.2,0.5,0.5,1.1,0.7,1.6c0.4,0.8,0.7,1.7,1,2.5c0.4,0.9,0.9,1.8,1.3,2.8c0.4,0,0.8,0,1.1,0c0.2-0.8,0.7-1.7,1.1-2.4
		c0.5-1.1,0.9-2.3,1.4-3.4c0.3-0.6,0.7-1.2,0.8-1.9C11.8,10,11.2,10,11,10.1z"/>
	<path class="st0" d="M33.8,17.8c0.4,0,0.8,0,1.2,0c0.1-0.4,0.6-1.6,0.8-1.8c0,0,0-0.1,0-0.1c0.9,0.1,2.1,0.1,3,0c0.3,0,0.7,0.1,1,0
		c0.2,0.1,0.8,1.6,0.9,1.9c0.2,0,0.7,0.1,0.9,0c0.1,0,0.2,0,0.3,0c-0.1-0.6-0.7-1.6-1-2.2c-0.5-1-0.8-2-1.3-3
		c-0.4-0.8-0.9-1.7-1.2-2.6c-0.1,0-0.2,0-0.3,0c-0.2,0.1-0.6,0-0.9,0.1c-0.3,0.3-0.5,1.2-0.8,1.7c-0.6,1.2-1.2,2.6-1.8,3.8
		C34.4,16.2,34.1,17.3,33.8,17.8C33.8,17.7,33.8,17.7,33.8,17.8z M37.8,11.3c0.2,0.2,0.2,0.5,0.3,0.8c0.3,0.6,0.6,1.2,0.9,1.8
		c0.2,0.3,0.2,0.7,0.4,1c-0.2,0.2-0.6,0-0.9,0.1c-0.4,0-1.7-0.1-2,0c-0.1,0-0.2,0-0.3,0C36.7,13.7,37.3,12.5,37.8,11.3z"/>
	<g>
		<path class="st0" d="M99.3,5.8c-0.1-0.2-0.3-0.3-0.5-0.4c-0.7-0.3-1.6,0.1-1.9,0.7c-0.4-0.4-0.8-0.9-1.3-1.1S94.3,4.8,94,5.3
			c-0.3,0.4-0.3,0.9-0.2,1.4c0.2,1.4,0.9,2.7,1.8,3.7c-4.6,5.7-11.9,8.8-19.2,9.8c-7.3,1-14.7,0.1-21.9-1
			c-5.5-0.8-11.1-1.8-16.7-2.1c-5.5-0.3-10.7,0.9-16,2.5c-0.3,0.1-3,0.7-3,0.9c0.1-2.8,0.1-5.6,0.1-8.4c0-0.9-0.2-2.1-1.2-2.3
			c-0.6-0.1-1.1,0.3-1.4,0.9c-0.2,0.5-0.3,1.1-0.3,1.7c0,2.3,0,4.6-0.1,7c0,0.7,0,1.5-0.4,2.2c-0.4,0.8-1.2,1.3-1.9,1.8
			c-3.5,2.3-6.5,5.4-8.3,9.2C3.7,36.3,3.3,40.8,5,44.7c0.6,1.3,1.4,2.6,2.5,3.4c1.1,0.9,2.6,1.4,4,1.1c2.5-0.4,4.1-2.9,5-5.3
			c2.5-6.6,2.1-13.8,2.2-20.9c0-0.3,0-0.6,0.2-0.8c0.2-0.3,0.6-0.5,0.9-0.6c3.6-1.2,7.3-2,11-2.4c3.8-0.4,7.3-0.2,11.1,0.2
			c6.1,0.7,12.3,1.5,18.4,2.2c2.8,0.3,5.5,0.6,8.4,0.5c0.8,0,8.8-0.3,8.8-0.8c6.5-1.2,12.5-4.3,17.5-8.5c0.7-0.6,1.4-1.6,2-2.3
			c0.3-0.1,0.9-0.4,1.3-0.8c0.6-0.6,1.2-1.3,1.4-2.2C99.9,7,99.7,6.2,99.3,5.8z M15.9,26c0,1.2,0,2.5-0.1,3.7c0,1.4-0.1,2.8-0.2,4.2
			c-0.2,2.2-0.5,4.4-1,6.5c-0.4,1.7-1,3.4-2.1,4.8c-0.6,0.7-1.3,1.4-2.1,1.7c-1.3,0.5-2.6,0.1-3.5-0.8c-1.4-1.4-2.2-3.6-2.3-5.6
			c-0.4-3.9,1.3-7.9,3.5-11c1.2-1.7,2.6-3.1,4.2-4.4c0.6-0.5,1.2-0.9,1.8-1.3c0.6-0.4,1.2-0.7,1.8-1.1c0,0.2,0.1,0.4,0,0.7
			c0,0.2,0,0.5,0,0.7C15.9,24.8,15.9,25.4,15.9,26z"/>
		<path class="st0" d="M16.7,7.7C16.8,7.8,17,7.9,17.1,8c0.6,0.1,0.9-0.3,1.3-0.6c0.9-0.5,3-2.2,2.2-4c-0.3-0.7-1.3-0.9-2-0.5
			c-0.4,0.2-0.6,0.6-0.9,0.9c0,0.1,0,0-0.1,0.1c-0.1-0.6-0.9-1.5-1.7-1.6c-0.3,0.2-0.6,0.1-0.9,0.4c-0.4,0.5-0.4,1.5-0.2,2
			C15.3,5.8,15.9,6.9,16.7,7.7z"/>
	</g>
	<path class="st0" d="M29.8,14c0.2,0.3,0.3,0.8,0.6,1.1c0,0.9,0,1.8,0,2.7c0.3,0,0.8,0.1,1.1,0c0,0,0.1,0,0.1,0c0-0.9,0-1.8,0-2.7
		c1-1.7,2-3.3,3-5c0,0,0-0.1,0-0.1c-0.4,0-0.7,0-1.1,0c-0.6,1-1.2,2-1.8,2.9c-0.2,0.3-0.4,0.8-0.6,1.1c0,0,0,0,0,0c0,0,0,0,0,0
		c-0.5-1-1.2-1.9-1.7-2.9c-0.2-0.3-0.6-0.7-0.7-1.1c-0.3,0-0.7-0.1-0.9,0c-0.1,0-0.2,0-0.3,0c0.1,0.6,0.6,1,0.9,1.5
		C28.8,12.4,29.4,13.2,29.8,14z"/>
	<path class="st0" d="M13.9,10.1c-0.4,0-0.8,0-1.1,0c-0.1,0.8-0.1,1.8,0,2.5c0.1,0.9-0.1,1.8,0,2.7c0.1,0.6-0.2,2,0,2.4
		c0,0,0,0.1,0,0.1c0.4,0,0.7,0,1.1,0c0.1-0.6,0.1-1.2,0-1.7c-0.1-0.6,0.1-1.2,0-1.7c0-0.8,0-1.6,0-2.4
		C13.9,11.4,13.8,10.7,13.9,10.1z"/>
	<path class="st0" d="M49,17.8c0.1-0.4,0.6-1.6,0.8-1.8c0,0,0-0.1,0-0.1c0.9,0.1,2.1,0.1,3,0c0.3,0,0.7,0.1,1,0
		c0.2,0.1,0.8,1.6,0.9,1.9c0.2,0,0.7,0.1,0.9,0c0.1,0,0.2,0,0.3,0c-0.1-0.6-0.7-1.6-1-2.2c-0.5-1-0.8-2-1.3-3
		c-0.4-0.8-0.9-1.7-1.2-2.6c-0.3,0-0.9-0.1-1.1,0c-0.1,0.1-0.1,0.3-0.2,0.5c-0.3,0.5-0.5,1.1-0.8,1.7c-0.5,1.1-1,2.3-1.6,3.5
		c-0.2,0.5-0.6,1-0.7,1.5c-0.1-0.1,0-0.4,0-0.5c-0.9-0.1-2-0.1-2.9,0c-0.3,0-0.7-0.1-1,0c-0.1,0-0.2,0-0.2-0.1c-0.2-0.3,0-1.6,0-2
		c-0.1-0.9,0.1-1.8,0-2.7c-0.1-0.6-0.1-1.3,0-1.9c-0.4,0-0.8,0-1.1,0c-0.1,0.8-0.1,1.8,0,2.5c0.1,0.9-0.1,1.8,0,2.7
		c0.1,0.6-0.2,2,0,2.4c0,0,0,0.1,0,0.1C44.8,17.8,46.9,17.8,49,17.8z M51.8,11.2c0.2,0.2,0.2,0.5,0.3,0.8c0.3,0.6,0.6,1.2,0.9,1.8
		c0.2,0.3,0.2,0.7,0.4,1c-0.2,0.2-0.6,0-0.9,0.1c-0.4,0-1.7-0.1-2,0c-0.1,0-0.2,0-0.3,0C50.8,13.7,51.3,12.5,51.8,11.2z"/>
	<path class="st0" d="M129.8,29.3c0-1.9,0-3.8,0-5.7c-0.4,0-0.7,0-1.1,0c-0.1,0.7-0.1,1.6,0,2.3c0,0.3-0.1,0.7,0,1c0,0,0,0.1,0,0.1
		c-1.5,0-2.9,0-4.4,0c0-1.1,0-2.2,0-3.3c-0.4,0-0.8,0-1.1,0c-0.1,0.8-0.1,1.8,0,2.5c0.1,0.9-0.1,1.8,0,2.7c0.1,0.6-0.2,2,0,2.4
		c0,0,0,0.1,0,0.1c0.4,0,0.7,0,1.1,0c0.1-1.2-0.1-2.3,0-3.4c1.5,0,2.9,0,4.4,0c-0.1,0.8-0.1,1.6,0,2.3c0,0.3-0.1,0.7,0,1
		c0,0,0,0.1,0,0.1c0.3,0,0.8,0.1,1.1,0c0.1-0.1,0-0.4,0-0.5C129.8,30.3,129.8,29.7,129.8,29.3z"/>
	<path class="st0" d="M82,28.8C82,28.8,82,28.8,82,28.8c0.4-0.4,0.8-0.4,1.2-0.9c0.2-0.3,0.4-0.9,0.4-1.4c0-0.2,0-0.4,0-0.5
		c-0.1-0.6-0.3-1.1-0.7-1.5c-1.2-1.1-3.8-0.8-5.5-0.8c-0.1,0.8-0.1,1.8,0,2.5c0.1,0.9-0.1,1.8,0,2.7c0.1,0.6-0.2,2,0,2.4
		c0,0,0,0.1,0,0.1c0.4,0,0.7,0,1.1,0c0-0.8,0-1.6,0-2.4c0.8,0.1,1.6,0,2.3,0c0.6,0.8,1.1,1.6,1.7,2.4c0.4,0,0.8,0,1.1,0
		c0,0,0.1,0,0.1,0c0,0,0,0,0,0c-0.2-0.2-0.4-0.5-0.5-0.8C82.9,29.9,82.3,29.4,82,28.8z M79.6,28c-0.3,0-0.7-0.1-1,0
		c-0.2-0.3,0-0.8,0-1.1c-0.1-0.7-0.1-1.6,0-2.3c1.1,0,2.7-0.2,3.5,0.5c0.4,0.3,0.4,0.7,0.4,1.3c0,0.3-0.1,0.6-0.2,0.9
		C81.7,28.1,80.7,27.9,79.6,28z"/>
	<path class="st0" d="M87.6,14.4c0-0.9,0-1.8,0-2.7c-0.1-0.5-0.1-1.1,0-1.7c-0.3,0-0.6,0-1,0c-0.2,0.5-0.6,1-0.8,1.4
		c-0.6,1-1.1,1.9-1.6,2.9c-0.2,0.3-0.5,0.7-0.6,1.1c-0.3-0.2-0.7-1.2-0.9-1.6c-0.7-1.3-1.7-2.5-2.3-3.8c-0.3,0-0.6,0-0.9,0
		c-0.1,0.8-0.1,1.8,0,2.5c0.1,0.9-0.1,1.8,0,2.7c0.1,0.6-0.2,2,0,2.4c0,0,0,0.1,0,0.1c0.4,0,0.7,0,1.1,0c0.1-0.6,0.1-1.2,0-1.7
		c-0.1-0.7,0.1-1.4,0-2c0-0.5,0.2-1.3,0-1.7c0,0,0-0.1,0-0.1c0,0,0,0,0,0c0.2,0.4,0.5,0.7,0.7,1.1c0.4,0.7,0.8,1.5,1.3,2.2
		c0.2,0.4,0.7,0.8,0.8,1.3c0.2,0,0.4,0,0.6,0c0.6-1,1.2-2,1.8-3c0.3-0.5,0.5-1.1,0.9-1.5c0-0.1,0,0,0.1-0.1c0,1.8,0,3.7,0,5.5
		c0.4,0,0.7,0,1.1,0c0.1-0.6,0.1-1.2,0-1.7C87.5,15.4,87.7,14.9,87.6,14.4z"/>
	<path class="st0" d="M121.2,23.6c-1.3,0-2.6,0-3.9,0c0,0.3-0.1,0.7,0,0.9c0,0,0,0.1,0,0.1c0.6,0,1.2,0,1.8,0c0.2,0,0.5,0.1,0.7,0
		c0.1,0,0.2,0,0.3,0c0,0.5-0.1,0.9,0,1.4c0.1,0.6-0.1,1.3,0,2c0.1,1.4-0.1,2.6-1.6,2.3c-0.2,0-0.4-0.1-0.5-0.2
		c-0.3-0.2-0.5-0.5-0.8-0.7c-0.2,0.2-0.4,0.5-0.6,0.7c0,0,0,0.1-0.1,0.1c0.4,0.3,0.6,0.7,1.2,0.9c0.4,0.2,1.1,0.2,1.5,0.1
		c0.9-0.1,1.4-0.4,1.8-1.1c0.3-0.5,0.3-1.5,0.2-2.1C121.2,26.7,121.2,25.1,121.2,23.6z"/>
	<path class="st0" d="M93.5,27.5c-0.1-0.1-0.3-0.1-0.4-0.2c-0.1,0,0,0-0.1-0.1c1.2-0.3,1.2-2.4,0.4-3c-1.1-1-4.1-0.6-5.7-0.6
		c-0.1,0.8-0.1,1.8,0,2.5c0.1,0.9-0.1,1.8,0,2.7c0.1,0.6-0.2,2,0,2.4c0,0,0,0.1,0,0.1c0.8,0.1,1.8,0.1,2.5,0c0.3,0,0.7,0,1,0
		c0.9-0.1,1.8-0.1,2.4-0.6c0.7-0.5,0.9-1.8,0.4-2.6C94.1,28,93.7,27.7,93.5,27.5z M88.9,24.5c0.3,0,0.6,0,1,0c1.1-0.1,2.7-0.1,2.9,1
		c0,0.1,0.1,0.4,0,0.6c-0.4,1-1.5,0.8-2.6,0.9c-0.3,0-0.7-0.1-1,0c-0.1,0-0.3,0-0.3-0.1c-0.1-0.2,0-0.4,0-0.7
		C88.9,25.7,88.8,25.1,88.9,24.5z M92.7,30.2c-0.7,0.3-1.8,0.1-2.7,0.2c-0.3,0-0.7-0.1-1,0c-0.2-0.2,0-0.5-0.1-0.8
		c0-0.4,0.1-1.4,0-1.7c0,0,0,0,0,0c0.7,0.1,1.4,0.1,2,0c0.2,0,0.5,0.1,0.7,0c0.7,0.1,1.3,0.2,1.6,0.7C93.5,29.2,93.1,30,92.7,30.2z"
		/>
	<path class="st0" d="M114.5,26.2c-0.4-0.8-0.9-1.7-1.2-2.6c-0.3,0-0.9-0.1-1.1,0c-0.1,0.1-0.1,0.3-0.2,0.5
		c-0.3,0.5-0.5,1.1-0.8,1.7c-0.5,1.1-1,2.3-1.6,3.5c-0.2,0.5-0.6,1-0.7,1.5c-0.1-0.1,0-0.4,0-0.5c-0.9-0.1-2-0.1-2.9,0
		c-0.3,0-0.7-0.1-1,0c-0.1,0-0.2,0-0.2-0.1c-0.2-0.3,0-1.6,0-2c-0.1-0.9,0.1-1.8,0-2.7c-0.1-0.6-0.1-1.3,0-1.9c-0.4,0-0.8,0-1.1,0
		c-0.1,0.8-0.1,1.8,0,2.5c0.1,0.9-0.1,1.8,0,2.7c0.1,0.6-0.2,2,0,2.4c0,0,0,0.1,0,0.1c2.1,0,4.2,0,6.3,0c0.1-0.4,0.6-1.6,0.8-1.8
		c0,0,0-0.1,0-0.1c0.9,0.1,2.1,0.1,3,0c0.3,0,0.7,0.1,1,0c0.2,0.1,0.8,1.6,0.9,1.9c0.2,0,0.7,0.1,0.9,0c0.1,0,0.2,0,0.3,0
		c-0.1-0.6-0.7-1.6-1-2.2C115.3,28.1,114.9,27.2,114.5,26.2z M113.4,28.5c-0.4,0-1.7-0.1-2,0c-0.1,0-0.2,0-0.3,0
		c0.5-1.2,1.1-2.4,1.6-3.7c0.2,0.2,0.2,0.5,0.3,0.8c0.3,0.6,0.6,1.2,0.9,1.8c0.2,0.3,0.2,0.7,0.4,1
		C114.1,28.6,113.7,28.4,113.4,28.5z"/>
	<path class="st0" d="M89.6,17.7C89.6,17.7,89.6,17.7,89.6,17.7c0.4,0.1,0.7,0.1,1.1,0.1c0.1-0.6,0.1-1.2,0-1.7
		c-0.1-0.6,0.1-1.2,0-1.7c0-0.8,0-1.6,0-2.4c-0.1-0.6-0.1-1.3,0-1.9c-0.4,0-0.8,0-1.1,0c-0.1,0.8-0.1,1.8,0,2.5
		c0.1,0.9-0.1,1.8,0,2.7C89.7,15.9,89.5,17.3,89.6,17.7z"/>
	<path class="st0" d="M77.4,17.2c0-0.5,0-1,0-1.5c0-1.9,0-3.8,0-5.7c-0.4,0-0.7,0-1.1,0c-0.1,0.7-0.1,1.6,0,2.3c0,0.3-0.1,0.7,0,1
		c0,0,0,0.1,0,0.1c-1.5,0-2.9,0-4.4,0c0-1.1,0-2.2,0-3.3c-0.4,0-0.8,0-1.1,0c-0.1,0.8-0.1,1.8,0,2.5c0.1,0.9-0.1,1.8,0,2.7
		c0.1,0.6-0.2,2,0,2.4c0,0,0,0.1,0,0.1c0.4,0,0.7,0,1.1,0c0.1-1.2-0.1-2.3,0-3.4c1.5,0,2.9,0,4.4,0c-0.1,0.8-0.1,1.6,0,2.3
		c0,0.3-0.1,0.7,0,1c0,0,0,0.1,0,0.1c0.3,0,0.8,0.1,1.1,0C77.5,17.7,77.4,17.4,77.4,17.2z"/>
	<path class="st0" d="M100.4,26.2c-0.4-0.8-0.9-1.7-1.2-2.6c-0.1,0-0.2,0-0.3,0c-0.2,0.1-0.6,0-0.9,0.1c-0.3,0.3-0.5,1.2-0.8,1.7
		c-0.6,1.3-1.2,2.6-1.8,3.8c-0.3,0.5-0.6,1.7-0.9,2.1c0,0,0,0,0,0c0.4,0,0.8,0,1.2,0c0.1-0.4,0.6-1.6,0.8-1.8c0,0,0-0.1,0-0.1
		c0.9,0.1,2.1,0.1,3,0c0.3,0,0.7,0.1,1,0c0.2,0.1,0.8,1.6,0.9,1.9c0.2,0,0.7,0.1,0.9,0c0.1,0,0.2,0,0.3,0c-0.1-0.6-0.7-1.6-1-2.2
		C101.2,28.2,100.9,27.2,100.4,26.2z M99.4,28.5c-0.4,0-1.7-0.1-2,0c-0.1,0-0.2,0-0.3,0c0.5-1.2,1.1-2.4,1.6-3.7
		c0.2,0.2,0.2,0.5,0.3,0.8c0.3,0.6,0.6,1.2,0.9,1.8c0.2,0.3,0.2,0.7,0.4,1C100.1,28.6,99.7,28.5,99.4,28.5z"/>
	<path class="st0" d="M67.6,28c0-0.9,0-1.8,0-2.7c-0.1-0.5-0.1-1.1,0-1.7c-0.3,0-0.6,0-1,0c-0.2,0.5-0.6,1-0.8,1.4
		c-0.6,1-1.1,1.9-1.6,2.9c-0.2,0.3-0.5,0.7-0.6,1.1c-0.3-0.2-0.7-1.2-0.9-1.6c-0.7-1.3-1.7-2.5-2.3-3.8c-0.3,0-0.6,0-0.9,0
		c-0.1,0.8-0.1,1.8,0,2.5c0.1,0.9-0.1,1.8,0,2.7c0.1,0.6-0.2,2,0,2.4c0,0,0,0.1,0,0.1c0.4,0,0.7,0,1.1,0c0.1-0.6,0.1-1.2,0-1.7
		c-0.1-0.7,0.1-1.4,0-2c0-0.5,0.2-1.3,0-1.7c0,0,0-0.1,0-0.1c0,0,0,0,0,0c0.2,0.4,0.5,0.7,0.7,1.1c0.4,0.7,0.8,1.5,1.3,2.2
		c0.2,0.4,0.7,0.8,0.8,1.3c0.2,0,0.4,0,0.6,0c0.6-1,1.2-2,1.8-3c0.3-0.5,0.5-1.1,0.9-1.5c0-0.1,0,0,0.1-0.1c0,1.8,0,3.7,0,5.5
		c0.4,0,0.7,0,1.1,0c0.1-0.6,0.1-1.2,0-1.7C67.5,29.1,67.6,28.5,67.6,28z"/>
	<path class="st0" d="M61.2,16.7c0.3,0.3,0.8,0.7,1,1.1c0.4,0,0.9,0,1.3,0c-0.3-0.5-0.9-1.2-1.3-1.6c-0.1-0.2-0.3-0.4-0.4-0.6
		c-0.3-0.3-0.5-0.6-0.8-0.9c-0.3-0.3-0.5-0.8-0.9-1.1c0.2-0.5,0.8-0.8,1.1-1.1c0.5-0.5,1-1.1,1.5-1.6c0.2-0.2,0.4-0.5,0.6-0.7
		c0,0,0-0.1,0-0.1c-0.3,0-0.8-0.1-1,0c-0.4,0-0.9,0.7-1.2,1c-0.6,0.7-1.3,1.3-1.9,1.9c-0.4,0.4-0.8,0.9-1.2,1.3c0,0,0,0,0,0
		c0,0,0,0,0,0c0-1.4,0-2.8,0-4.2c-0.4,0-0.8,0-1.1,0c-0.1,0.8-0.1,1.8,0,2.5c0.1,0.9-0.1,1.8,0,2.7c0.1,0.6-0.2,2,0,2.4
		c0,0,0,0.1,0,0.1c0.4,0,0.7,0,1.1,0c0-0.7,0-1.4,0-2c0.2-0.2,1.2-1.1,1.3-1.4c0,0,0.1,0,0.1,0c0.4,0.5,0.8,1,1.2,1.4
		C60.8,16,61,16.4,61.2,16.7z"/>
	<path class="st0" d="M74.2,26.2c-0.4-0.8-0.9-1.7-1.2-2.6c-0.1,0-0.2,0-0.3,0c-0.2,0.1-0.6,0-0.9,0.1c-0.3,0.3-0.5,1.2-0.8,1.7
		c-0.6,1.3-1.2,2.6-1.8,3.8c-0.3,0.5-0.6,1.7-0.9,2.1c0,0,0,0,0,0c0.4,0,0.8,0,1.2,0c0.1-0.4,0.6-1.6,0.8-1.8c0,0,0-0.1,0-0.1
		c0.9,0.1,2.1,0.1,3,0c0.3,0,0.7,0.1,1,0c0.2,0.1,0.8,1.6,0.9,1.9c0.2,0,0.7,0.1,0.9,0c0.1,0,0.2,0,0.3,0c-0.1-0.6-0.7-1.6-1-2.2
		C75.1,28.2,74.7,27.2,74.2,26.2z M73.2,28.5c-0.4,0-1.7-0.1-2,0c-0.1,0-0.2,0-0.3,0c0.5-1.2,1.1-2.4,1.6-3.7
		c0.2,0.2,0.2,0.5,0.3,0.8c0.3,0.6,0.6,1.2,0.9,1.8c0.2,0.3,0.2,0.7,0.4,1C73.9,28.6,73.5,28.4,73.2,28.5z"/>
	<path class="st0" d="M57.4,23.6c-0.4,0-0.7,0-1.1,0c0,0.5,0,0.9,0,1.4c0.1,0.9-0.1,1.8,0,2.7c0.1,0.5,0,1.4-0.3,1.8
		c-0.3,0.6-0.8,0.8-1.6,0.9c-0.3,0-0.8,0.1-1.1-0.1c-1.8-0.7-1.1-3-1.3-4.9c0-0.5,0.2-1.3,0-1.7c0,0,0-0.1,0-0.1
		c-0.3,0-0.7-0.1-0.9,0c-0.1,0-0.1,0-0.2,0c0.1,0.5-0.1,1.1,0,1.7c0.3,2.8-0.6,5,2.1,5.9c0.5,0.2,1.3,0.2,1.7,0.1
		c1-0.2,1.8-0.5,2.3-1.3C57.9,28.5,57.2,25.5,57.4,23.6z"/>
	<path class="st0" d="M48.4,29.1c-0.3-0.3-0.5-0.6-0.8-0.9c-0.3-0.3-0.5-0.8-0.9-1.1c0.2-0.5,0.8-0.8,1.1-1.1c0.5-0.5,1-1.1,1.5-1.6
		c0.2-0.2,0.4-0.5,0.6-0.7c0,0,0-0.1,0-0.1c-0.3,0-0.8-0.1-1,0c-0.4,0-0.9,0.7-1.2,1c-0.6,0.7-1.3,1.3-1.9,1.9
		c-0.4,0.4-0.8,0.9-1.2,1.3c0,0,0,0,0,0c0,0,0,0,0,0c0-1.4,0-2.8,0-4.2c-0.4,0-0.8,0-1.1,0c-0.1,0.8-0.1,1.8,0,2.5
		c0.1,0.9-0.1,1.8,0,2.7c0.1,0.6-0.2,2,0,2.4c0,0,0,0.1,0,0.1c0.4,0,0.7,0,1.1,0c0-0.7,0-1.4,0-2c0.2-0.2,1.2-1.1,1.3-1.4
		c0,0,0.1,0,0.1,0c0.4,0.5,0.8,1,1.2,1.4c0.3,0.3,0.4,0.6,0.7,0.9c0.3,0.3,0.8,0.7,1,1.1c0.4,0,0.9,0,1.3,0
		c-0.3-0.5-0.9-1.2-1.3-1.6C48.7,29.5,48.6,29.3,48.4,29.1z"/>
	<path class="st0" d="M67.5,16.8c-1.2,0.4-2.8-0.2-3.5-0.8c-0.1,0.2-0.2,0.6-0.4,0.8c0,0.6,1.5,0.8,2.2,1c0.2,0.1,0.7,0.1,1,0
		c1.2-0.1,1.9-0.3,2.4-1.2c0.1-0.2,0.3-0.6,0.3-0.9c-0.1-1.4-0.9-1.7-2.2-2.1c-0.9-0.3-2.2-0.3-2.4-1.1c-0.2-0.5,0.2-0.9,0.4-1.1
		c1-0.8,2.4-0.2,3.5,0.3c0.1-0.3,0.2-0.5,0.4-0.8c-0.1-0.5-1.7-0.7-2.4-0.8c-0.1,0.1-0.3,0-0.5,0c-0.4,0.1-0.8,0.1-1.2,0.3
		c-0.8,0.4-1.6,1.4-1.2,2.6c0.1,0.3,0.5,0.7,0.7,0.9c0.7,0.6,2,0.5,3,0.9c0.3,0.1,0.5,0.4,0.8,0.6c0,0.3,0.1,0.5,0,0.9
		C68,16.4,67.9,16.7,67.5,16.8z"/>
</g>
</svg>
